<?xml version="1.0" standalone="no"?>
<!DOCTYPE svg PUBLIC "-//W3C//DTD SVG 20010904//EN"
 "http://www.w3.org/TR/2001/REC-SVG-20010904/DTD/svg10.dtd">
<svg version="1.0" xmlns="http://www.w3.org/2000/svg"
 width="980.000000pt" height="998.000000pt" viewBox="0 0 980.000000 998.000000"
 preserveAspectRatio="xMidYMid meet">
<metadata>
Created by potrace 1.16, written by Peter Selinger 2001-2019
</metadata>
<g transform="translate(0.000000,998.000000) scale(0.100000,-0.100000)"
fill="#000000" stroke="none">
<path d="M4395 9970 c-421 -24 -950 -147 -1415 -331 -164 -65 -505 -233 -654
-324 -691 -418 -1256 -988 -1678 -1694 -89 -148 -262 -500 -323 -656 -357
-914 -420 -1887 -185 -2840 146 -591 434 -1193 822 -1713 180 -243 529 -620
718 -778 686 -571 1576 -962 2450 -1075 179 -23 565 -41 628 -29 81 14 153
116 138 194 -8 40 -46 90 -85 110 -35 18 -77 24 -261 36 -699 48 -1234 186
-1779 459 -270 136 -680 393 -681 428 0 6 30 28 68 48 37 21 261 143 497 272
757 414 880 487 972 585 98 104 148 202 178 344 21 102 36 438 27 621 -8 139
-8 143 -40 185 -221 299 -426 714 -508 1031 -22 86 -48 128 -103 165 -95 65
-101 98 -101 576 l0 371 64 70 63 70 6 555 c7 696 17 790 108 975 128 262 403
473 733 561 192 50 317 66 577 71 329 7 527 -13 778 -77 213 -56 317 -109 467
-238 219 -190 318 -379 344 -657 5 -60 10 -348 10 -638 l0 -529 51 -56 c89
-99 99 -130 106 -305 6 -176 -11 -575 -27 -630 -16 -55 -62 -101 -145 -147
-78 -43 -140 -103 -151 -145 -16 -64 24 -146 90 -186 123 -75 398 107 514 340
l37 75 3 467 3 466 -73 144 -73 144 0 550 c0 606 1 593 -67 790 -37 110 -74
185 -143 291 -208 320 -633 566 -1120 648 -238 41 -673 46 -930 11 -664 -89
-1106 -382 -1324 -878 -80 -184 -81 -192 -92 -737 -5 -267 -13 -537 -18 -601
-8 -113 -10 -120 -55 -203 -75 -137 -79 -169 -79 -611 0 -501 5 -528 121 -684
80 -108 90 -126 164 -324 100 -269 249 -565 390 -775 l70 -104 -4 -301 c-5
-365 -9 -382 -97 -467 -59 -57 -143 -105 -991 -568 -383 -209 -560 -299 -609
-308 -33 -7 -37 -4 -170 132 -320 328 -582 689 -782 1079 -246 479 -385 939
-456 1505 -26 209 -26 851 0 1060 62 497 202 971 415 1406 104 211 153 295
288 499 276 418 630 790 1039 1095 248 185 671 418 970 536 701 274 1467 368
2219 273 979 -124 1840 -547 2531 -1243 610 -615 1015 -1377 1190 -2235 35
-171 62 -386 80 -636 22 -300 25 -314 79 -365 40 -36 138 -41 185 -8 58 39 74
77 79 192 6 127 -12 395 -39 586 -108 770 -432 1550 -909 2185 -264 351 -603
692 -944 948 -629 474 -1337 776 -2117 901 -246 40 -752 62 -1044 46z" style="fill: white;"/>
<path d="M7339 4460 c-101 -9 -114 -33 -189 -355 -33 -140 -75 -243 -118 -288
-15 -16 -49 -41 -77 -55 -41 -22 -64 -27 -125 -27 -66 0 -84 4 -150 36 -41 20
-123 68 -182 107 -199 132 -256 149 -334 102 -48 -29 -310 -285 -365 -357 -82
-105 -75 -145 52 -325 44 -62 94 -142 112 -178 28 -57 32 -74 32 -150 0 -71
-4 -93 -25 -133 -51 -100 -160 -161 -365 -203 -136 -28 -181 -45 -234 -90
l-32 -27 3 -311 c3 -355 3 -352 86 -388 25 -11 108 -31 183 -44 76 -13 162
-33 192 -44 187 -70 269 -220 213 -387 -10 -29 -54 -110 -98 -180 -168 -267
-167 -275 86 -528 163 -163 235 -215 295 -215 38 0 134 50 231 119 47 34 119
78 159 99 67 33 83 37 150 37 67 0 83 -4 139 -34 104 -57 140 -124 193 -369
33 -151 47 -188 80 -218 47 -42 90 -48 334 -48 260 1 329 10 370 52 35 35 42
53 71 201 51 254 133 357 295 369 107 7 153 -10 306 -111 114 -76 144 -91 185
-95 44 -4 55 -1 102 32 29 20 127 112 218 204 235 238 236 245 111 448 -121
196 -143 247 -143 324 0 110 43 202 121 256 46 32 125 55 308 90 221 42 243
58 261 197 12 95 12 406 0 482 -16 99 -52 130 -186 161 -307 72 -367 97 -422
178 -43 64 -66 146 -58 204 9 68 44 134 149 290 142 209 144 233 30 368 -157
186 -361 364 -418 364 -11 0 -93 -43 -180 -97 -254 -153 -350 -180 -458 -128
-96 45 -175 165 -196 293 -6 37 -18 106 -25 155 -14 85 -39 151 -74 193 -16
21 -25 22 -287 26 -148 2 -295 1 -326 -2z m346 -341 c9 -9 21 -47 26 -89 31
-220 236 -457 460 -531 67 -22 91 -24 244 -24 196 0 220 6 355 85 47 27 88 50
93 50 13 0 92 -77 106 -104 13 -23 10 -31 -31 -98 -109 -175 -121 -222 -116
-433 l3 -150 47 -96 c107 -219 282 -368 479 -409 91 -18 99 -28 99 -115 0 -51
-4 -76 -15 -85 -8 -6 -47 -18 -87 -27 -227 -47 -387 -172 -496 -389 -51 -100
-66 -173 -66 -319 0 -115 3 -139 26 -206 24 -67 69 -154 113 -214 14 -20 11
-25 -48 -83 l-63 -63 -95 45 c-124 60 -202 79 -319 79 -162 0 -309 -50 -439
-148 -114 -87 -223 -242 -252 -360 -18 -75 -20 -76 -118 -73 l-85 3 -23 86
c-60 237 -218 411 -459 506 -65 26 -78 27 -229 27 -187 -1 -219 -9 -369 -99
-51 -30 -100 -55 -110 -55 -23 0 -116 89 -116 111 0 10 23 58 50 106 77 133
85 169 85 363 0 159 -1 167 -28 229 -110 251 -275 394 -521 451 -50 12 -97 26
-103 32 -13 10 -19 178 -8 178 25 0 168 35 209 51 77 31 179 103 240 171 146
161 216 427 172 647 -19 94 -48 157 -113 250 l-45 63 63 64 c35 35 67 64 71
64 4 0 46 -25 92 -55 158 -103 254 -135 406 -135 370 0 640 230 713 605 l22
117 82 -4 c58 -2 87 -8 98 -19z" style="fill: white;"/>
<path d="M7415 3085 c-186 -42 -332 -128 -471 -278 -203 -219 -277 -484 -210
-749 42 -164 125 -307 247 -423 132 -125 266 -196 437 -232 92 -19 254 -13
347 12 259 69 498 292 611 570 28 69 28 74 28 260 0 188 -1 191 -31 267 -82
208 -259 401 -458 500 -156 78 -351 106 -500 73z m275 -346 c82 -13 183 -66
243 -127 130 -133 176 -315 127 -506 -25 -99 -61 -165 -127 -230 -98 -98 -221
-146 -378 -146 -153 0 -273 49 -370 151 -107 112 -149 261 -127 447 14 116 42
171 137 271 81 85 150 128 223 141 70 11 198 11 272 -1z" style="fill: white;"/>
</g>
</svg>
