<?xml version="1.0" encoding="utf-8"?>
<!-- Generator: Adobe Illustrator 25.2.3, SVG Export Plug-In . SVG Version: 6.00 Build 0)  -->
<svg version="1.1"
	 id="Capa_1" xmlns:cc="http://creativecommons.org/ns#" xmlns:dc="http://purl.org/dc/elements/1.1/" xmlns:inkscape="http://www.inkscape.org/namespaces/inkscape" xmlns:rdf="http://www.w3.org/1999/02/22-rdf-syntax-ns#" xmlns:sodipodi="http://sodipodi.sourceforge.net/DTD/sodipodi-0.dtd" xmlns:svg="http://www.w3.org/2000/svg"
	 xmlns="http://www.w3.org/2000/svg" xmlns:xlink="http://www.w3.org/1999/xlink" x="0px" y="0px" viewBox="0 0 16.9 21.2"
	 style="enable-background:new 0 0 16.9 21.2;" xml:space="preserve">
<g transform="translate(0,-280.06665)">
	<path d="M3.3,283.2c-0.9,0-1.6,0.7-1.6,1.6v9.5v0c0,0,0,0,0,0c0,0.9,0.7,1.6,1.6,1.6H12c0.1,0,0.3-0.1,0.3-0.3v-1.3V293v-4.8
		c0-0.1-0.1-0.3-0.3-0.3s-0.3,0.1-0.3,0.3l0,4.5H3.3c-0.4,0-0.8,0.2-1.1,0.4v-8.3c0-0.6,0.5-1.1,1.1-1.1h4.8c0.1,0,0.3-0.1,0.3-0.3
		c0-0.1-0.1-0.3-0.3-0.3L3.3,283.2z M3.3,293.3h8.5v0.1v2H3.3c-0.6,0-1.1-0.5-1.1-1.1C2.2,293.8,2.7,293.3,3.3,293.3z"/>
	<path d="M12,281.1c-1.7,0-3.2,1.4-3.2,3.2c0,1.8,1.4,3.2,3.2,3.2s3.2-1.4,3.2-3.2C15.2,282.6,13.8,281.1,12,281.1z M12,281.7
		c1.5,0,2.6,1.2,2.6,2.6s-1.2,2.6-2.6,2.6s-2.6-1.2-2.6-2.6S10.6,281.7,12,281.7z"/>
	<path d="M12,282.7c-0.1,0-0.3,0.1-0.3,0.3v1.1h-1.1c-0.2,0-0.3,0.1-0.3,0.3s0.1,0.3,0.3,0.3h1.1v1.1c0,0.2,0.1,0.3,0.3,0.3
		s0.3-0.1,0.3-0.3v-1.1h1.1c0.2,0,0.3-0.1,0.3-0.3s-0.1-0.3-0.3-0.3h-1.1V283C12.3,282.8,12.2,282.7,12,282.7z"/>
</g>
</svg>
