<?xml version="1.0" encoding="utf-8"?>
<!-- Svg Vector Icons : http://www.onlinewebfonts.com/icon -->
<!DOCTYPE svg PUBLIC "-//W3C//DTD SVG 1.1//EN" "http://www.w3.org/Graphics/SVG/1.1/DTD/svg11.dtd">
<svg version="1.1" xmlns="http://www.w3.org/2000/svg" xmlns:xlink="http://www.w3.org/1999/xlink" x="0px" y="0px" viewBox="0 0 1000 1000" enable-background="new 0 0 1000 1000" xml:space="preserve">
<metadata> Svg Vector Icons : http://www.onlinewebfonts.com/icon </metadata>
<g><path d="M856.1,708.9V575h-45.2v133.9l-133.9,0v45.2l133.9,0v133.9h45.2V754.1l133.9,0v-45.2L856.1,708.9z"/><path d="M614.9,455.8c-25.1,0-45.4,20.3-45.4,45.4c0,25.1,20.3,45.4,45.4,45.4s45.4-20.3,45.4-45.4C660.3,476.1,639.9,455.8,614.9,455.8z"/><path d="M254.1,501.2c0,25.1,20.3,45.4,45.4,45.4c25.1,0,45.4-20.3,45.4-45.4c0-25.1-20.3-45.4-45.4-45.4C274.5,455.8,254.1,476.1,254.1,501.2z"/><path d="M411.8,501.2c0,25.1,20.3,45.4,45.4,45.4c25.1,0,45.4-20.3,45.4-45.4c0-25.1-20.4-45.4-45.4-45.4C432.1,455.8,411.8,476.1,411.8,501.2z"/><path d="M436.2,158.7c209.2,0,379.4,153.1,379.4,341.3c0,13.2-0.9,26.3-2.5,39.2h47.1c1.4-12.9,2.2-25.9,2.2-39.2c0-214-191.2-388.1-426.1-388.1C201.2,111.9,10,286,10,500c0,69.6,20.7,137.7,59.9,197.7l-41,180.8l178.5-51c68.3,39.7,147.2,60.6,228.8,60.6c74.2,0,144.1-17.4,204.9-47.9v-53.1c-59.1,34.3-129.5,54.2-204.9,54.2c-76.5,0-150.3-20.4-213.3-59l-8.8-5.4L91.9,811.8L120,688.2l-5.8-8.5C76.6,625.5,56.8,563.4,56.8,500C56.8,311.8,227,158.7,436.2,158.7z"/></g>
</svg>