<svg width="100%" height="100%" viewBox="0 0 417 521" version="1.1" xmlns="http://www.w3.org/2000/svg" xmlns:xlink="http://www.w3.org/1999/xlink" xml:space="preserve" xmlns:serif="http://www.serif.com/" style="fill-rule:evenodd;clip-rule:evenodd;stroke-linejoin:round;stroke-miterlimit:2;"><g><path d="M327.381,4.499c-38.691,0 -71.429,24.405 -83.929,58.929c-24.404,-14.881 -52.381,-23.214 -82.738,-23.214c-88.69,-0 -160.714,72.023 -160.714,160.714c-0,26.786 7.143,51.786 18.452,73.809c45.238,79.762 91.072,158.929 136.905,238.691c2.381,4.167 8.333,3.571 10.714,-0c44.643,-80.357 92.858,-158.333 136.905,-238.691c11.31,-22.023 18.453,-47.023 18.453,-73.809c-0,-5.952 -0.596,-12.5 -1.191,-18.452c2.381,-0 4.762,0.595 7.143,0.595c49.405,-0 89.286,-39.881 89.286,-89.286c-0,-49.405 -39.881,-89.286 -89.286,-89.286Zm-0,11.905c42.857,0 77.381,34.524 77.381,77.381c-0,42.857 -34.524,77.381 -77.381,77.381c-42.857,0 -77.381,-34.524 -77.381,-77.381c0,-42.857 34.524,-77.381 77.381,-77.381Zm-0,29.762c-3.571,0 -5.952,2.381 -5.952,5.952l-0,35.715l-35.715,-0c-3.571,-0 -5.952,2.381 -5.952,5.952c-0,3.571 2.381,5.952 5.952,5.952l35.715,0l-0,35.715c-0,3.571 2.381,5.952 5.952,5.952c3.571,0 5.952,-2.381 5.952,-5.952l0,-35.715l35.715,0c3.571,0 5.952,-2.381 5.952,-5.952c0,-3.571 -2.381,-5.952 -5.952,-5.952l-35.715,-0l0,-35.715c0,-3.571 -2.381,-5.952 -5.952,-5.952Zm-166.667,5.952c29.167,0 56.548,8.334 79.167,23.215c-1.191,5.952 -1.786,12.5 -1.786,18.452c0,42.857 29.762,77.976 70.238,86.905c1.191,6.547 1.191,13.095 1.191,20.238c-0,24.405 -6.548,47.619 -17.262,68.452c-43.452,76.191 -87.5,152.381 -131.548,229.167c-43.452,-76.786 -88.69,-152.381 -131.547,-229.167c-10.715,-20.833 -17.262,-44.047 -17.262,-68.452c-0,-82.738 66.666,-148.81 148.809,-148.81Zm0,77.381c-39.285,0 -71.428,32.143 -71.428,71.429c-0,39.286 32.143,71.428 71.428,71.428c39.286,0 71.429,-32.142 71.429,-71.428c-0,-39.881 -32.143,-71.429 -71.429,-71.429Zm0,11.905c32.738,0 59.524,26.786 59.524,59.524c0,32.738 -26.786,59.524 -59.524,59.524c-32.738,-0 -59.524,-26.786 -59.524,-59.524c0,-33.333 26.786,-59.524 59.524,-59.524Z" style="fill:#fff;fill-rule:nonzero;"/></g></svg>