<?xml version="1.0" encoding="UTF-8" standalone="no"?><!DOCTYPE svg PUBLIC "-//W3C//DTD SVG 1.1//EN" "http://www.w3.org/Graphics/SVG/1.1/DTD/svg11.dtd"><svg width="100%" height="100%" viewBox="0 0 71 89" version="1.1" xmlns="http://www.w3.org/2000/svg" xmlns:xlink="http://www.w3.org/1999/xlink" xml:space="preserve" xmlns:serif="http://www.serif.com/" style="fill-rule:evenodd;clip-rule:evenodd;stroke-linejoin:round;stroke-miterlimit:2;"><g><path d="M8.346,16.522c-4.695,-0 -8.346,3.651 -8.346,8.345l0,49.553c0,4.694 3.651,8.345 8.346,8.345l45.379,0c0.522,0 1.565,-0.521 1.565,-1.564l0,-38.599c0,-0.522 -0.521,-1.565 -1.565,-1.565c-1.043,0 -1.565,0.522 -1.565,1.565l0,23.472l-43.814,0c-2.087,0 -4.173,1.043 -5.738,2.086l0,-43.293c0,-3.129 2.608,-5.737 5.738,-5.737l25.037,-0c0.521,-0 1.565,-0.522 1.565,-1.565c-0,-0.522 -0.522,-1.565 -1.565,-1.565l-25.037,0.522Zm-0,52.682l44.336,-0l0,10.953l-44.336,0c-3.13,0 -5.738,-2.608 -5.738,-5.737c0,-2.608 2.608,-5.216 5.738,-5.216Z" style="fill:#fff;fill-rule:nonzero;"/><path d="M53.725,5.568c-8.867,-0 -16.691,7.302 -16.691,16.691c-0,9.389 7.302,16.692 16.691,16.692c9.389,-0 16.692,-7.303 16.692,-16.692c-0,-8.867 -7.303,-16.691 -16.692,-16.691Zm0,3.13c7.824,-0 13.562,6.259 13.562,13.561c0,7.303 -6.259,13.562 -13.562,13.562c-7.302,-0 -13.561,-6.259 -13.561,-13.562c-0,-7.302 6.259,-13.561 13.561,-13.561Z" style="fill:#fff;fill-rule:nonzero;"/><path d="M53.725,13.914c-0.521,-0 -1.565,0.521 -1.565,1.564l0,5.738l-5.737,0c-1.043,0 -1.565,0.522 -1.565,1.565c0,1.043 0.522,1.565 1.565,1.565l5.737,-0l0,5.737c0,1.044 0.522,1.565 1.565,1.565c1.044,0 1.565,-0.521 1.565,-1.565l0,-5.737l5.738,-0c1.043,-0 1.565,-0.522 1.565,-1.565c-0,-1.043 -0.522,-1.565 -1.565,-1.565l-5.738,0l0,-5.738c0,-1.043 -0.521,-1.564 -1.565,-1.564Z" style="fill:#fff;fill-rule:nonzero;"/></g></svg>