<?xml version="1.0" encoding="utf-8"?>
<!-- Svg Vector Icons : http://www.onlinewebfonts.com/icon -->
<!DOCTYPE svg PUBLIC "-//W3C//DTD SVG 1.1//EN" "http://www.w3.org/Graphics/SVG/1.1/DTD/svg11.dtd">
<svg version="1.1" xmlns="http://www.w3.org/2000/svg" xmlns:xlink="http://www.w3.org/1999/xlink" x="0px" y="0px" viewBox="0 0 1000 1000" enable-background="new 0 0 1000 1000" xml:space="preserve">
<metadata> Svg Vector Icons : http://www.onlinewebfonts.com/icon </metadata>
<g><path d="M935.6,872.7c0,43.5,22.1,81.3,54.4,99.7v15.3c-9,1.4-18.3,2.1-27.6,2.1c-57.9,0-110-27.3-146.9-71.1c-22.3,6.7-45.9,10.3-70.4,10.3c-135.3,0-245-109.7-245-245c0-135.3,109.7-245,245-245s245,109.7,245,245c0,53-16.8,102-45.4,142.1C938.8,840.2,935.6,856,935.6,872.7L935.6,872.7z M206.2,221.9c-56.3,51.5-87.3,117.7-87.3,186.4c0,38.6,9.5,76,28.3,111.2c19.4,36.3,48.5,69.5,84.2,95.9c25.8,19.1,43.2,49.7,47.8,84.1c1.5,11.5,2.5,23,2.9,34.6c6.4-5.9,12.5-12.3,18.6-19.1c20.6-23.1,48.3-35.9,77-35.9c4.6,0,9.2,0.3,13.7,1c17.8,2.5,36,3.8,54.1,3.8v122.5c-23.1,0-45.7-1.7-67.8-4.8C284.1,906.9,172.4,925.8,64.4,928.6v-25.8c58.3-32.1,108.9-90.7,108.9-157.6c0-9.3-0.6-18.5-1.8-27.5C73,644.8,10,533.3,10,408.4C10,188.5,205,10.2,445.6,10.2c236.9,0,429.6,172.8,435.4,388.1c-35-17.5-73-28.2-112.5-31.2c-9.8-53.7-38.6-104.1-83.6-145.2c-30.1-27.5-65.4-49.2-105.2-64.5c-42.3-16.3-87.4-24.6-134.2-24.6c-46.7,0-91.9,8.3-134.2,24.6C271.7,172.7,236.3,194.4,206.2,221.9L206.2,221.9z" style="fill: white;"/></g>
</svg>