<svg version="1.1"
	 id="Capa_1" xmlns:cc="http://creativecommons.org/ns#" xmlns:dc="http://purl.org/dc/elements/1.1/" xmlns:inkscape="http://www.inkscape.org/namespaces/inkscape" xmlns:rdf="http://www.w3.org/1999/02/22-rdf-syntax-ns#" xmlns:sodipodi="http://sodipodi.sourceforge.net/DTD/sodipodi-0.dtd" xmlns:svg="http://www.w3.org/2000/svg"
	 xmlns="http://www.w3.org/2000/svg" xmlns:xlink="http://www.w3.org/1999/xlink" x="0px" y="0px" viewBox="0 0 100 125"
	 style="enable-background:new 0 0 100 125;" xml:space="preserve">
<g transform="translate(0,-952.36218)">
	<path d="M70,959.4c-6.5,0-12,4.1-14.1,9.9c-4.1-2.5-8.8-3.9-13.9-3.9c-14.9,0-27,12.1-27,27c0,4.5,1.2,8.7,3.1,12.4
		c7.6,13.4,15.3,26.7,23,40.1c0.4,0.7,1.4,0.6,1.8,0c7.5-13.5,15.6-26.6,23-40.1c1.9-3.7,3.1-7.9,3.1-12.4c0-1-0.1-2.1-0.2-3.1
		c0.4,0,0.8,0.1,1.2,0.1c8.3,0,15-6.7,15-15C85,966.1,78.3,959.4,70,959.4z M70,961.4c7.2,0,13,5.8,13,13s-5.8,13-13,13
		s-13-5.8-13-13S62.8,961.4,70,961.4z M42,967.4c4.9,0,9.5,1.4,13.3,3.9c-0.2,1-0.3,2.1-0.3,3.1c0,7.2,5,13.1,11.8,14.6
		c0.2,1.1,0.2,2.2,0.2,3.4c0,4.1-1.1,8-2.9,11.5c-7.3,12.8-14.7,25.6-22.1,38.5c-7.3-12.9-14.9-25.6-22.1-38.5
		c-1.8-3.5-2.9-7.4-2.9-11.5C17,978.5,28.2,967.4,42,967.4L42,967.4z M42,980.4c-6.6,0-12,5.4-12,12s5.4,12,12,12s12-5.4,12-12
		C54,985.7,48.6,980.4,42,980.4z M42,982.4c5.5,0,10,4.5,10,10s-4.5,10-10,10s-10-4.5-10-10C32,986.8,36.5,982.4,42,982.4z" style="fill: white;"/>
	<path d="M65.5,962.4v16.1l4.5-4.1l4.5,4.1v-17.1C74.5,961.4,68.4,958.9,65.5,962.4z" style="fill: white;"/>
</g>
</svg>
