<?xml version="1.0"?><svg fill="#000000" xmlns="http://www.w3.org/2000/svg"  viewBox="0 0 50 50" width="50px" height="40px">    <path d="M 12.988281 2 C 12.435281 2 11.988281 2.448 11.988281 3 L 11.988281 47 C 11.988281 47.358 12.179234 47.689187 12.490234 47.867188 C 12.801234 48.045187 13.183188 48.043281 13.492188 47.863281 L 24.988281 41.158203 L 36.484375 47.863281 C 36.639375 47.954281 36.814281 48 36.988281 48 C 37.160281 48 37.332328 47.956187 37.486328 47.867188 C 37.797328 47.689188 37.988281 47.358 37.988281 47 L 37.988281 35.820312 C 37.299281 35.704313 36.632281 35.529734 35.988281 35.302734 L 35.988281 45.259766 L 25.492188 39.136719 C 25.337188 39.045719 25.162281 39 24.988281 39 C 24.814281 39 24.639375 39.045719 24.484375 39.136719 L 13.988281 45.259766 L 13.988281 4 L 35.988281 4 L 35.988281 12.697266 C 36.632281 12.469266 37.299281 12.295687 37.988281 12.179688 L 37.988281 3 C 37.988281 2.448 37.541281 2 36.988281 2 L 12.988281 2 z M 40 13.988281 C 34.5 13.988281 30 18.488281 30 23.988281 C 30 29.488281 34.5 33.988281 40 33.988281 C 45.5 33.988281 50 29.488281 50 23.988281 C 50 18.488281 45.5 13.988281 40 13.988281 z M 40 15.988281 C 44.4 15.988281 48 19.588281 48 23.988281 C 48 28.388281 44.4 31.988281 40 31.988281 C 35.6 31.988281 32 28.388281 32 23.988281 C 32 19.588281 35.6 15.988281 40 15.988281 z M 35.099609 22.988281 C 34.499609 22.988281 34.099609 23.388281 34.099609 23.988281 C 34.099609 24.588281 34.499609 24.988281 35.099609 24.988281 L 44.900391 24.988281 C 45.500391 24.988281 45.900391 24.588281 45.900391 23.988281 C 45.900391 23.388281 45.500391 22.988281 44.900391 22.988281 L 35.099609 22.988281 z" style="fill: #388E3C;"/></svg>